<?xml version="1.0" ?><svg id="Layer_1" style="enable-background:new 0 0 2048 2048;" version="1.1" viewBox="0 0 2048 2048" xml:space="preserve" xmlns="http://www.w3.org/2000/svg" xmlns:xlink="http://www.w3.org/1999/xlink"><style type="text/css">
	.st0{fill:#A8D5E6;}
	.st1{fill:#72B8CE;}
	.st2{fill:#D6F4FF;}
</style><g><g><path class="st0" d="M1562.58,1687.04H485.42c-19.87,0-36.92-14.15-40.58-33.67l-118.75-632.65h1395.83l-118.75,632.65    C1599.5,1672.89,1582.45,1687.04,1562.58,1687.04z"/><path class="st1" d="M1731.07,1020.72H316.93c-33.65,0-60.93-27.28-60.93-60.93v-3.93c0-33.65,27.28-60.93,60.93-60.93h1414.13    c33.65,0,60.93,27.28,60.93,60.93v3.93C1792,993.44,1764.72,1020.72,1731.07,1020.72z"/><g><path class="st2" d="M631.02,1520.32h-3.68c-31.48,0-57-25.52-57-57v-218.89c0-31.48,25.52-57,57-57h3.68c31.48,0,57,25.52,57,57     v218.89C688.02,1494.8,662.5,1520.32,631.02,1520.32z"/><path class="st2" d="M894.23,1520.32h-3.68c-31.48,0-57-25.52-57-57v-218.89c0-31.48,25.52-57,57-57h3.68c31.48,0,57,25.52,57,57     v218.89C951.23,1494.8,925.71,1520.32,894.23,1520.32z"/><path class="st2" d="M1157.44,1520.32h-3.68c-31.48,0-57-25.52-57-57v-218.89c0-31.48,25.52-57,57-57h3.68     c31.48,0,57,25.52,57,57v218.89C1214.44,1494.8,1188.92,1520.32,1157.44,1520.32z"/><path class="st2" d="M1420.66,1520.32h-3.68c-31.48,0-57-25.52-57-57v-218.89c0-31.48,25.52-57,57-57h3.68     c31.48,0,57,25.52,57,57v218.89C1477.65,1494.8,1452.14,1520.32,1420.66,1520.32z"/></g></g><g><g><path class="st1" d="M1024,787.74c-13.68,0-24.77-11.09-24.77-24.77V385.74c0-13.68,11.09-24.77,24.77-24.77     s24.77,11.09,24.77,24.77v377.23C1048.77,776.64,1037.68,787.74,1024,787.74z"/></g><g><g><path class="st1" d="M1024.2,787.74h-0.39c-8.72,0-16.73-4.58-21.18-11.92l-110.03-130.3c-8.83-10.45-7.51-26.08,2.95-34.91      c10.45-8.83,26.08-7.51,34.91,2.95L1024,724.33l93.55-110.78c8.83-10.46,24.46-11.77,34.91-2.95      c10.45,8.83,11.77,24.46,2.94,34.91l-110.03,130.3C1040.92,783.16,1032.92,787.74,1024.2,787.74z"/></g></g></g></g></svg>